{
    "asset" : {
        "generator" : "Khronos glTF Blender I/O v1.4.40",
        "version" : "2.0"
    },
    "scene" : 0,
    "scenes" : [
        {
            "name" : "Scene",
            "nodes" : [
                0,
                1,
                2
            ]
        }
    ],
    "nodes" : [
        {
            "name" : "Light",
            "rotation" : [
                0.16907575726509094,
                0.7558803558349609,
                -0.27217137813568115,
                0.570947527885437
            ],
            "translation" : [
                4.076245307922363,
                5.903861999511719,
                -1.0054539442062378
            ]
        },
        {
            "name" : "Camera",
            "rotation" : [
                0.596529483795166,
                0.2956792116165161,
                -0.251016765832901,
                0.7026499509811401
            ],
            "scale" : [
                2.5031208992004395,
                2.5031206607818604,
                2.5031206607818604
            ],
            "translation" : [
                13.188514709472656,
                5.700717926025391,
                9.474567413330078
            ]
        },
        {
            "mesh" : 0,
            "name" : "Cylinder.003",
            "rotation" : [
                0.15708692371845245,
                -0.20137667655944824,
                -0.708398163318634,
                0.65798419713974
            ],
            "scale" : [
                0.28056052327156067,
                0.0011697446461766958,
                0.2709178924560547
            ],
            "translation" : [
                3,
                3.555351972579956,
                -1.4344022274017334
            ]
        }
    ],
    "materials" : [
        {
            "doubleSided" : true,
            "name" : "Material.006",
            "pbrMetallicRoughness" : {
                "baseColorFactor" : [
                    0.82407546043396,
                    0.8324044942855835,
                    0.9169375896453857,
                    1
                ],
                "metallicFactor" : 0,
                "roughnessFactor" : 0.5
            }
        },
        {
            "doubleSided" : true,
            "name" : "Material.005",
            "pbrMetallicRoughness" : {
                "baseColorFactor" : [
                    0.003885710146278143,
                    0.06225180625915527,
                    0.8000000715255737,
                    1
                ],
                "metallicFactor" : 0,
                "roughnessFactor" : 0.5
            }
        }
    ],
    "meshes" : [
        {
            "name" : "Cylinder.002",
            "primitives" : [
                {
                    "attributes" : {
                        "POSITION" : 0,
                        "NORMAL" : 1,
                        "TEXCOORD_0" : 2
                    },
                    "indices" : 3,
                    "material" : 0
                },
                {
                    "attributes" : {
                        "POSITION" : 4,
                        "NORMAL" : 5,
                        "TEXCOORD_0" : 6
                    },
                    "indices" : 7,
                    "material" : 1
                }
            ]
        }
    ],
    "accessors" : [
        {
            "bufferView" : 0,
            "componentType" : 5126,
            "count" : 4032,
            "max" : [
                7.130648612976074,
                1.0008559226989746,
                3.062697172164917
            ],
            "min" : [
                -2.386539936065674,
                -2001.04931640625,
                -6.44620418548584
            ],
            "type" : "VEC3"
        },
        {
            "bufferView" : 1,
            "componentType" : 5126,
            "count" : 4032,
            "type" : "VEC3"
        },
        {
            "bufferView" : 2,
            "componentType" : 5126,
            "count" : 4032,
            "type" : "VEC2"
        },
        {
            "bufferView" : 3,
            "componentType" : 5123,
            "count" : 7812,
            "type" : "SCALAR"
        },
        {
            "bufferView" : 4,
            "componentType" : 5126,
            "count" : 24,
            "max" : [
                7.125894546508789,
                0.00048828125,
                3.05794620513916
            ],
            "min" : [
                -2.3817856311798096,
                -1999.999755859375,
                -6.441455841064453
            ],
            "type" : "VEC3"
        },
        {
            "bufferView" : 5,
            "componentType" : 5126,
            "count" : 24,
            "type" : "VEC3"
        },
        {
            "bufferView" : 6,
            "componentType" : 5126,
            "count" : 24,
            "type" : "VEC2"
        },
        {
            "bufferView" : 7,
            "componentType" : 5123,
            "count" : 36,
            "type" : "SCALAR"
        }
    ],
    "bufferViews" : [
        {
            "buffer" : 0,
            "byteLength" : 48384,
            "byteOffset" : 0
        },
        {
            "buffer" : 0,
            "byteLength" : 48384,
            "byteOffset" : 48384
        },
        {
            "buffer" : 0,
            "byteLength" : 32256,
            "byteOffset" : 96768
        },
        {
            "buffer" : 0,
            "byteLength" : 15624,
            "byteOffset" : 129024
        },
        {
            "buffer" : 0,
            "byteLength" : 288,
            "byteOffset" : 144648
        },
        {
            "buffer" : 0,
            "byteLength" : 288,
            "byteOffset" : 144936
        },
        {
            "buffer" : 0,
            "byteLength" : 192,
            "byteOffset" : 145224
        },
        {
            "buffer" : 0,
            "byteLength" : 72,
            "byteOffset" : 145416
        }
    ],
    "buffers" : [
        {
            "byteLength" : 145488,
            "uri" : "data:application/octet-stream;base64,"
        }
    ]
}
